<?xml version="1.0" encoding="UTF-8"?>
<svg width="34px" height="34px" viewBox="0 0 34 34" version="1.1" xmlns="http://www.w3.org/2000/svg" xmlns:xlink="http://www.w3.org/1999/xlink">
    <title>D6BD5212-2759-4ADB-A639-F571114F70C3</title>
    <g id="Contenedores" stroke="none" stroke-width="1" fill="none" fill-rule="evenodd">
        <g id="Cargo-Orders-" transform="translate(-342.000000, -884.000000)" fill="#000000" fill-rule="nonzero">
            <g id="Group-3" transform="translate(319.000000, 861.000000)">
                <g id="plus" transform="translate(23.000000, 23.000000)">
                    <path d="M32.2997976,15.2999533 L18.7000467,15.2999533 L18.7000467,1.69989103 C18.7000467,0.761698134 17.9383486,0 16.9998443,0 C16.0616514,0 15.2999533,0.761698134 15.2999533,1.69989103 L15.2999533,15.2999533 L1.69989103,15.2999533 C0.761698134,15.2999533 0,16.0616514 0,16.9998443 C0,17.9383486 0.761698134,18.7000467 1.69989103,18.7000467 L15.2999533,18.7000467 L15.2999533,32.2997976 C15.2999533,33.2383019 16.0616514,34 16.9998443,34 C17.9383486,34 18.7000467,33.2383019 18.7000467,32.2997976 L18.7000467,18.7000467 L32.2997976,18.7000467 C33.2383019,18.7000467 34,17.9383486 34,16.9998443 C34,16.0616514 33.2383019,15.2999533 32.2997976,15.2999533 Z" id="Path"></path>
                </g>
            </g>
        </g>
    </g>
</svg>