<?xml version="1.0" encoding="UTF-8"?>
<svg width="21px" height="26px" viewBox="0 0 21 26" version="1.1" xmlns="http://www.w3.org/2000/svg" xmlns:xlink="http://www.w3.org/1999/xlink">
    <title>F990F88B-3372-49D7-822D-B8A298303F0B</title>
    <defs>
        <radialGradient cx="129.073274%" cy="50%" fx="129.073274%" fy="50%" r="108.60946%" gradientTransform="translate(1.290733,0.500000),scale(1.000000,0.772575),scale(1.000000,0.998649),translate(-1.290733,-0.500000)" id="radialGradient-1">
            <stop stop-color="#A4ADBA" offset="0%"></stop>
            <stop stop-color="#FAFAFA" offset="100%"></stop>
        </radialGradient>
    </defs>
    <g id="Tutoriales" stroke="none" stroke-width="1" fill="none" fill-rule="evenodd">
        <g id="Upcoming-order-2" transform="translate(-63.000000, -988.000000)" fill="url(#radialGradient-1)" fill-rule="nonzero">
            <g id="hazardous-file" transform="translate(45.000000, 975.000000)">
                <g id="document" transform="translate(18.730435, 13.000000)">
                    <path d="M19.8185006,4.91400745 L15.2533051,0.271117277 C15.1682958,0.184444626 15.0670765,0.115944395 14.9556389,0.0696428086 C14.8454853,0.023885307 14.7276814,0 14.6087005,0 L2.739128,0 C1.22634827,0 0,1.24720477 0,2.78571234 L0,23.2142877 C0,24.7527952 1.22634827,26 2.739128,26 L17.3478285,26 C18.8606083,26 20.0869565,24.7527952 20.0869565,23.2142877 L20.0869565,5.57142469 C20.0856726,5.32495443 19.9892681,5.08887619 19.8185006,4.91400745 Z M15.5217075,3.17016241 L16.9698075,4.64289018 L15.5217075,4.64289018 L15.5217075,3.17016241 Z M17.347775,24.1428766 L2.739128,24.1428766 C2.23485026,24.1428766 1.8260675,23.7271417 1.8260675,23.2142877 L1.8260675,2.78571234 C1.8260675,2.27285835 2.23485026,1.85712343 2.739128,1.85712343 L13.69564,1.85712343 L13.69564,5.57142469 C13.69564,6.08427868 14.1044228,6.5000136 14.6087005,6.5000136 L18.260889,6.5000136 L18.260889,23.2142877 C18.260889,23.7271417 17.8520528,24.1428766 17.347775,24.1428766 Z" id="Shape"></path>
                </g>
            </g>
        </g>
    </g>
</svg>